<svg version="1.1" xmlns="http://www.w3.org/2000/svg" xmlns:xlink="http://www.w3.org/1999/xlink" width="1159" height="780"><defs/><g><text fill="#eeeeee" stroke="none" font-family="Arial" font-size="24px" font-style="normal" font-weight="normal" text-decoration="none" x="0" y="0">UNREGISTERED</text><text fill="#eeeeee" stroke="none" font-family="Arial" font-size="24px" font-style="normal" font-weight="normal" text-decoration="none" x="0" y="30">UNREGISTERED</text><text fill="#eeeeee" stroke="none" font-family="Arial" font-size="24px" font-style="normal" font-weight="normal" text-decoration="none" x="0" y="60">UNREGISTERED</text><text fill="#eeeeee" stroke="none" font-family="Arial" font-size="24px" font-style="normal" font-weight="normal" text-decoration="none" x="0" y="90">UNREGISTERED</text><text fill="#eeeeee" stroke="none" font-family="Arial" font-size="24px" font-style="normal" font-weight="normal" text-decoration="none" x="0" y="120">UNREGISTERED</text><text fill="#eeeeee" stroke="none" font-family="Arial" font-size="24px" font-style="normal" font-weight="normal" text-decoration="none" x="0" y="150">UNREGISTERED</text><text fill="#eeeeee" stroke="none" font-family="Arial" font-size="24px" font-style="normal" font-weight="normal" text-decoration="none" x="0" y="180">UNREGISTERED</text><text fill="#eeeeee" stroke="none" font-family="Arial" font-size="24px" font-style="normal" font-weight="normal" text-decoration="none" x="0" y="210">UNREGISTERED</text><text fill="#eeeeee" stroke="none" font-family="Arial" font-size="24px" font-style="normal" font-weight="normal" text-decoration="none" x="0" y="240">UNREGISTERED</text><text fill="#eeeeee" stroke="none" font-family="Arial" font-size="24px" font-style="normal" font-weight="normal" text-decoration="none" x="0" y="270">UNREGISTERED</text><text fill="#eeeeee" stroke="none" font-family="Arial" font-size="24px" font-style="normal" font-weight="normal" text-decoration="none" x="0" y="300">UNREGISTERED</text><text fill="#eeeeee" stroke="none" font-family="Arial" font-size="24px" font-style="normal" font-weight="normal" text-decoration="none" x="0" y="330">UNREGISTERED</text><text fill="#eeeeee" stroke="none" font-family="Arial" font-size="24px" font-style="normal" font-weight="normal" text-decoration="none" x="0" y="360">UNREGISTERED</text><text fill="#eeeeee" stroke="none" font-family="Arial" font-size="24px" font-style="normal" font-weight="normal" text-decoration="none" x="0" y="390">UNREGISTERED</text><text fill="#eeeeee" stroke="none" font-family="Arial" font-size="24px" font-style="normal" font-weight="normal" text-decoration="none" x="0" y="420">UNREGISTERED</text><text fill="#eeeeee" stroke="none" font-family="Arial" font-size="24px" font-style="normal" font-weight="normal" text-decoration="none" x="0" y="450">UNREGISTERED</text><text fill="#eeeeee" stroke="none" font-family="Arial" font-size="24px" font-style="normal" font-weight="normal" text-decoration="none" x="0" y="480">UNREGISTERED</text><text fill="#eeeeee" stroke="none" font-family="Arial" font-size="24px" font-style="normal" font-weight="normal" text-decoration="none" x="0" y="510">UNREGISTERED</text><text fill="#eeeeee" stroke="none" font-family="Arial" font-size="24px" font-style="normal" font-weight="normal" text-decoration="none" x="0" y="540">UNREGISTERED</text><text fill="#eeeeee" stroke="none" font-family="Arial" font-size="24px" font-style="normal" font-weight="normal" text-decoration="none" x="0" y="570">UNREGISTERED</text><text fill="#eeeeee" stroke="none" font-family="Arial" font-size="24px" font-style="normal" font-weight="normal" text-decoration="none" x="0" y="600">UNREGISTERED</text><text fill="#eeeeee" stroke="none" font-family="Arial" font-size="24px" font-style="normal" font-weight="normal" text-decoration="none" x="0" y="630">UNREGISTERED</text><text fill="#eeeeee" stroke="none" font-family="Arial" font-size="24px" font-style="normal" font-weight="normal" text-decoration="none" x="0" y="660">UNREGISTERED</text><text fill="#eeeeee" stroke="none" font-family="Arial" font-size="24px" font-style="normal" font-weight="normal" text-decoration="none" x="0" y="690">UNREGISTERED</text><text fill="#eeeeee" stroke="none" font-family="Arial" font-size="24px" font-style="normal" font-weight="normal" text-decoration="none" x="0" y="720">UNREGISTERED</text><text fill="#eeeeee" stroke="none" font-family="Arial" font-size="24px" font-style="normal" font-weight="normal" text-decoration="none" x="0" y="750">UNREGISTERED</text><text fill="#eeeeee" stroke="none" font-family="Arial" font-size="24px" font-style="normal" font-weight="normal" text-decoration="none" x="200" y="0">UNREGISTERED</text><text fill="#eeeeee" stroke="none" font-family="Arial" font-size="24px" font-style="normal" font-weight="normal" text-decoration="none" x="200" y="30">UNREGISTERED</text><text fill="#eeeeee" stroke="none" font-family="Arial" font-size="24px" font-style="normal" font-weight="normal" text-decoration="none" x="200" y="60">UNREGISTERED</text><text fill="#eeeeee" stroke="none" font-family="Arial" font-size="24px" font-style="normal" font-weight="normal" text-decoration="none" x="200" y="90">UNREGISTERED</text><text fill="#eeeeee" stroke="none" font-family="Arial" font-size="24px" font-style="normal" font-weight="normal" text-decoration="none" x="200" y="120">UNREGISTERED</text><text fill="#eeeeee" stroke="none" font-family="Arial" font-size="24px" font-style="normal" font-weight="normal" text-decoration="none" x="200" y="150">UNREGISTERED</text><text fill="#eeeeee" stroke="none" font-family="Arial" font-size="24px" font-style="normal" font-weight="normal" text-decoration="none" x="200" y="180">UNREGISTERED</text><text fill="#eeeeee" stroke="none" font-family="Arial" font-size="24px" font-style="normal" font-weight="normal" text-decoration="none" x="200" y="210">UNREGISTERED</text><text fill="#eeeeee" stroke="none" font-family="Arial" font-size="24px" font-style="normal" font-weight="normal" text-decoration="none" x="200" y="240">UNREGISTERED</text><text fill="#eeeeee" stroke="none" font-family="Arial" font-size="24px" font-style="normal" font-weight="normal" text-decoration="none" x="200" y="270">UNREGISTERED</text><text fill="#eeeeee" stroke="none" font-family="Arial" font-size="24px" font-style="normal" font-weight="normal" text-decoration="none" x="200" y="300">UNREGISTERED</text><text fill="#eeeeee" stroke="none" font-family="Arial" font-size="24px" font-style="normal" font-weight="normal" text-decoration="none" x="200" y="330">UNREGISTERED</text><text fill="#eeeeee" stroke="none" font-family="Arial" font-size="24px" font-style="normal" font-weight="normal" text-decoration="none" x="200" y="360">UNREGISTERED</text><text fill="#eeeeee" stroke="none" font-family="Arial" font-size="24px" font-style="normal" font-weight="normal" text-decoration="none" x="200" y="390">UNREGISTERED</text><text fill="#eeeeee" stroke="none" font-family="Arial" font-size="24px" font-style="normal" font-weight="normal" text-decoration="none" x="200" y="420">UNREGISTERED</text><text fill="#eeeeee" stroke="none" font-family="Arial" font-size="24px" font-style="normal" font-weight="normal" text-decoration="none" x="200" y="450">UNREGISTERED</text><text fill="#eeeeee" stroke="none" font-family="Arial" font-size="24px" font-style="normal" font-weight="normal" text-decoration="none" x="200" y="480">UNREGISTERED</text><text fill="#eeeeee" stroke="none" font-family="Arial" font-size="24px" font-style="normal" font-weight="normal" text-decoration="none" x="200" y="510">UNREGISTERED</text><text fill="#eeeeee" stroke="none" font-family="Arial" font-size="24px" font-style="normal" font-weight="normal" text-decoration="none" x="200" y="540">UNREGISTERED</text><text fill="#eeeeee" stroke="none" font-family="Arial" font-size="24px" font-style="normal" font-weight="normal" text-decoration="none" x="200" y="570">UNREGISTERED</text><text fill="#eeeeee" stroke="none" font-family="Arial" font-size="24px" font-style="normal" font-weight="normal" text-decoration="none" x="200" y="600">UNREGISTERED</text><text fill="#eeeeee" stroke="none" font-family="Arial" font-size="24px" font-style="normal" font-weight="normal" text-decoration="none" x="200" y="630">UNREGISTERED</text><text fill="#eeeeee" stroke="none" font-family="Arial" font-size="24px" font-style="normal" font-weight="normal" text-decoration="none" x="200" y="660">UNREGISTERED</text><text fill="#eeeeee" stroke="none" font-family="Arial" font-size="24px" font-style="normal" font-weight="normal" text-decoration="none" x="200" y="690">UNREGISTERED</text><text fill="#eeeeee" stroke="none" font-family="Arial" font-size="24px" font-style="normal" font-weight="normal" text-decoration="none" x="200" y="720">UNREGISTERED</text><text fill="#eeeeee" stroke="none" font-family="Arial" font-size="24px" font-style="normal" font-weight="normal" text-decoration="none" x="200" y="750">UNREGISTERED</text><text fill="#eeeeee" stroke="none" font-family="Arial" font-size="24px" font-style="normal" font-weight="normal" text-decoration="none" x="400" y="0">UNREGISTERED</text><text fill="#eeeeee" stroke="none" font-family="Arial" font-size="24px" font-style="normal" font-weight="normal" text-decoration="none" x="400" y="30">UNREGISTERED</text><text fill="#eeeeee" stroke="none" font-family="Arial" font-size="24px" font-style="normal" font-weight="normal" text-decoration="none" x="400" y="60">UNREGISTERED</text><text fill="#eeeeee" stroke="none" font-family="Arial" font-size="24px" font-style="normal" font-weight="normal" text-decoration="none" x="400" y="90">UNREGISTERED</text><text fill="#eeeeee" stroke="none" font-family="Arial" font-size="24px" font-style="normal" font-weight="normal" text-decoration="none" x="400" y="120">UNREGISTERED</text><text fill="#eeeeee" stroke="none" font-family="Arial" font-size="24px" font-style="normal" font-weight="normal" text-decoration="none" x="400" y="150">UNREGISTERED</text><text fill="#eeeeee" stroke="none" font-family="Arial" font-size="24px" font-style="normal" font-weight="normal" text-decoration="none" x="400" y="180">UNREGISTERED</text><text fill="#eeeeee" stroke="none" font-family="Arial" font-size="24px" font-style="normal" font-weight="normal" text-decoration="none" x="400" y="210">UNREGISTERED</text><text fill="#eeeeee" stroke="none" font-family="Arial" font-size="24px" font-style="normal" font-weight="normal" text-decoration="none" x="400" y="240">UNREGISTERED</text><text fill="#eeeeee" stroke="none" font-family="Arial" font-size="24px" font-style="normal" font-weight="normal" text-decoration="none" x="400" y="270">UNREGISTERED</text><text fill="#eeeeee" stroke="none" font-family="Arial" font-size="24px" font-style="normal" font-weight="normal" text-decoration="none" x="400" y="300">UNREGISTERED</text><text fill="#eeeeee" stroke="none" font-family="Arial" font-size="24px" font-style="normal" font-weight="normal" text-decoration="none" x="400" y="330">UNREGISTERED</text><text fill="#eeeeee" stroke="none" font-family="Arial" font-size="24px" font-style="normal" font-weight="normal" text-decoration="none" x="400" y="360">UNREGISTERED</text><text fill="#eeeeee" stroke="none" font-family="Arial" font-size="24px" font-style="normal" font-weight="normal" text-decoration="none" x="400" y="390">UNREGISTERED</text><text fill="#eeeeee" stroke="none" font-family="Arial" font-size="24px" font-style="normal" font-weight="normal" text-decoration="none" x="400" y="420">UNREGISTERED</text><text fill="#eeeeee" stroke="none" font-family="Arial" font-size="24px" font-style="normal" font-weight="normal" text-decoration="none" x="400" y="450">UNREGISTERED</text><text fill="#eeeeee" stroke="none" font-family="Arial" font-size="24px" font-style="normal" font-weight="normal" text-decoration="none" x="400" y="480">UNREGISTERED</text><text fill="#eeeeee" stroke="none" font-family="Arial" font-size="24px" font-style="normal" font-weight="normal" text-decoration="none" x="400" y="510">UNREGISTERED</text><text fill="#eeeeee" stroke="none" font-family="Arial" font-size="24px" font-style="normal" font-weight="normal" text-decoration="none" x="400" y="540">UNREGISTERED</text><text fill="#eeeeee" stroke="none" font-family="Arial" font-size="24px" font-style="normal" font-weight="normal" text-decoration="none" x="400" y="570">UNREGISTERED</text><text fill="#eeeeee" stroke="none" font-family="Arial" font-size="24px" font-style="normal" font-weight="normal" text-decoration="none" x="400" y="600">UNREGISTERED</text><text fill="#eeeeee" stroke="none" font-family="Arial" font-size="24px" font-style="normal" font-weight="normal" text-decoration="none" x="400" y="630">UNREGISTERED</text><text fill="#eeeeee" stroke="none" font-family="Arial" font-size="24px" font-style="normal" font-weight="normal" text-decoration="none" x="400" y="660">UNREGISTERED</text><text fill="#eeeeee" stroke="none" font-family="Arial" font-size="24px" font-style="normal" font-weight="normal" text-decoration="none" x="400" y="690">UNREGISTERED</text><text fill="#eeeeee" stroke="none" font-family="Arial" font-size="24px" font-style="normal" font-weight="normal" text-decoration="none" x="400" y="720">UNREGISTERED</text><text fill="#eeeeee" stroke="none" font-family="Arial" font-size="24px" font-style="normal" font-weight="normal" text-decoration="none" x="400" y="750">UNREGISTERED</text><text fill="#eeeeee" stroke="none" font-family="Arial" font-size="24px" font-style="normal" font-weight="normal" text-decoration="none" x="600" y="0">UNREGISTERED</text><text fill="#eeeeee" stroke="none" font-family="Arial" font-size="24px" font-style="normal" font-weight="normal" text-decoration="none" x="600" y="30">UNREGISTERED</text><text fill="#eeeeee" stroke="none" font-family="Arial" font-size="24px" font-style="normal" font-weight="normal" text-decoration="none" x="600" y="60">UNREGISTERED</text><text fill="#eeeeee" stroke="none" font-family="Arial" font-size="24px" font-style="normal" font-weight="normal" text-decoration="none" x="600" y="90">UNREGISTERED</text><text fill="#eeeeee" stroke="none" font-family="Arial" font-size="24px" font-style="normal" font-weight="normal" text-decoration="none" x="600" y="120">UNREGISTERED</text><text fill="#eeeeee" stroke="none" font-family="Arial" font-size="24px" font-style="normal" font-weight="normal" text-decoration="none" x="600" y="150">UNREGISTERED</text><text fill="#eeeeee" stroke="none" font-family="Arial" font-size="24px" font-style="normal" font-weight="normal" text-decoration="none" x="600" y="180">UNREGISTERED</text><text fill="#eeeeee" stroke="none" font-family="Arial" font-size="24px" font-style="normal" font-weight="normal" text-decoration="none" x="600" y="210">UNREGISTERED</text><text fill="#eeeeee" stroke="none" font-family="Arial" font-size="24px" font-style="normal" font-weight="normal" text-decoration="none" x="600" y="240">UNREGISTERED</text><text fill="#eeeeee" stroke="none" font-family="Arial" font-size="24px" font-style="normal" font-weight="normal" text-decoration="none" x="600" y="270">UNREGISTERED</text><text fill="#eeeeee" stroke="none" font-family="Arial" font-size="24px" font-style="normal" font-weight="normal" text-decoration="none" x="600" y="300">UNREGISTERED</text><text fill="#eeeeee" stroke="none" font-family="Arial" font-size="24px" font-style="normal" font-weight="normal" text-decoration="none" x="600" y="330">UNREGISTERED</text><text fill="#eeeeee" stroke="none" font-family="Arial" font-size="24px" font-style="normal" font-weight="normal" text-decoration="none" x="600" y="360">UNREGISTERED</text><text fill="#eeeeee" stroke="none" font-family="Arial" font-size="24px" font-style="normal" font-weight="normal" text-decoration="none" x="600" y="390">UNREGISTERED</text><text fill="#eeeeee" stroke="none" font-family="Arial" font-size="24px" font-style="normal" font-weight="normal" text-decoration="none" x="600" y="420">UNREGISTERED</text><text fill="#eeeeee" stroke="none" font-family="Arial" font-size="24px" font-style="normal" font-weight="normal" text-decoration="none" x="600" y="450">UNREGISTERED</text><text fill="#eeeeee" stroke="none" font-family="Arial" font-size="24px" font-style="normal" font-weight="normal" text-decoration="none" x="600" y="480">UNREGISTERED</text><text fill="#eeeeee" stroke="none" font-family="Arial" font-size="24px" font-style="normal" font-weight="normal" text-decoration="none" x="600" y="510">UNREGISTERED</text><text fill="#eeeeee" stroke="none" font-family="Arial" font-size="24px" font-style="normal" font-weight="normal" text-decoration="none" x="600" y="540">UNREGISTERED</text><text fill="#eeeeee" stroke="none" font-family="Arial" font-size="24px" font-style="normal" font-weight="normal" text-decoration="none" x="600" y="570">UNREGISTERED</text><text fill="#eeeeee" stroke="none" font-family="Arial" font-size="24px" font-style="normal" font-weight="normal" text-decoration="none" x="600" y="600">UNREGISTERED</text><text fill="#eeeeee" stroke="none" font-family="Arial" font-size="24px" font-style="normal" font-weight="normal" text-decoration="none" x="600" y="630">UNREGISTERED</text><text fill="#eeeeee" stroke="none" font-family="Arial" font-size="24px" font-style="normal" font-weight="normal" text-decoration="none" x="600" y="660">UNREGISTERED</text><text fill="#eeeeee" stroke="none" font-family="Arial" font-size="24px" font-style="normal" font-weight="normal" text-decoration="none" x="600" y="690">UNREGISTERED</text><text fill="#eeeeee" stroke="none" font-family="Arial" font-size="24px" font-style="normal" font-weight="normal" text-decoration="none" x="600" y="720">UNREGISTERED</text><text fill="#eeeeee" stroke="none" font-family="Arial" font-size="24px" font-style="normal" font-weight="normal" text-decoration="none" x="600" y="750">UNREGISTERED</text><text fill="#eeeeee" stroke="none" font-family="Arial" font-size="24px" font-style="normal" font-weight="normal" text-decoration="none" x="800" y="0">UNREGISTERED</text><text fill="#eeeeee" stroke="none" font-family="Arial" font-size="24px" font-style="normal" font-weight="normal" text-decoration="none" x="800" y="30">UNREGISTERED</text><text fill="#eeeeee" stroke="none" font-family="Arial" font-size="24px" font-style="normal" font-weight="normal" text-decoration="none" x="800" y="60">UNREGISTERED</text><text fill="#eeeeee" stroke="none" font-family="Arial" font-size="24px" font-style="normal" font-weight="normal" text-decoration="none" x="800" y="90">UNREGISTERED</text><text fill="#eeeeee" stroke="none" font-family="Arial" font-size="24px" font-style="normal" font-weight="normal" text-decoration="none" x="800" y="120">UNREGISTERED</text><text fill="#eeeeee" stroke="none" font-family="Arial" font-size="24px" font-style="normal" font-weight="normal" text-decoration="none" x="800" y="150">UNREGISTERED</text><text fill="#eeeeee" stroke="none" font-family="Arial" font-size="24px" font-style="normal" font-weight="normal" text-decoration="none" x="800" y="180">UNREGISTERED</text><text fill="#eeeeee" stroke="none" font-family="Arial" font-size="24px" font-style="normal" font-weight="normal" text-decoration="none" x="800" y="210">UNREGISTERED</text><text fill="#eeeeee" stroke="none" font-family="Arial" font-size="24px" font-style="normal" font-weight="normal" text-decoration="none" x="800" y="240">UNREGISTERED</text><text fill="#eeeeee" stroke="none" font-family="Arial" font-size="24px" font-style="normal" font-weight="normal" text-decoration="none" x="800" y="270">UNREGISTERED</text><text fill="#eeeeee" stroke="none" font-family="Arial" font-size="24px" font-style="normal" font-weight="normal" text-decoration="none" x="800" y="300">UNREGISTERED</text><text fill="#eeeeee" stroke="none" font-family="Arial" font-size="24px" font-style="normal" font-weight="normal" text-decoration="none" x="800" y="330">UNREGISTERED</text><text fill="#eeeeee" stroke="none" font-family="Arial" font-size="24px" font-style="normal" font-weight="normal" text-decoration="none" x="800" y="360">UNREGISTERED</text><text fill="#eeeeee" stroke="none" font-family="Arial" font-size="24px" font-style="normal" font-weight="normal" text-decoration="none" x="800" y="390">UNREGISTERED</text><text fill="#eeeeee" stroke="none" font-family="Arial" font-size="24px" font-style="normal" font-weight="normal" text-decoration="none" x="800" y="420">UNREGISTERED</text><text fill="#eeeeee" stroke="none" font-family="Arial" font-size="24px" font-style="normal" font-weight="normal" text-decoration="none" x="800" y="450">UNREGISTERED</text><text fill="#eeeeee" stroke="none" font-family="Arial" font-size="24px" font-style="normal" font-weight="normal" text-decoration="none" x="800" y="480">UNREGISTERED</text><text fill="#eeeeee" stroke="none" font-family="Arial" font-size="24px" font-style="normal" font-weight="normal" text-decoration="none" x="800" y="510">UNREGISTERED</text><text fill="#eeeeee" stroke="none" font-family="Arial" font-size="24px" font-style="normal" font-weight="normal" text-decoration="none" x="800" y="540">UNREGISTERED</text><text fill="#eeeeee" stroke="none" font-family="Arial" font-size="24px" font-style="normal" font-weight="normal" text-decoration="none" x="800" y="570">UNREGISTERED</text><text fill="#eeeeee" stroke="none" font-family="Arial" font-size="24px" font-style="normal" font-weight="normal" text-decoration="none" x="800" y="600">UNREGISTERED</text><text fill="#eeeeee" stroke="none" font-family="Arial" font-size="24px" font-style="normal" font-weight="normal" text-decoration="none" x="800" y="630">UNREGISTERED</text><text fill="#eeeeee" stroke="none" font-family="Arial" font-size="24px" font-style="normal" font-weight="normal" text-decoration="none" x="800" y="660">UNREGISTERED</text><text fill="#eeeeee" stroke="none" font-family="Arial" font-size="24px" font-style="normal" font-weight="normal" text-decoration="none" x="800" y="690">UNREGISTERED</text><text fill="#eeeeee" stroke="none" font-family="Arial" font-size="24px" font-style="normal" font-weight="normal" text-decoration="none" x="800" y="720">UNREGISTERED</text><text fill="#eeeeee" stroke="none" font-family="Arial" font-size="24px" font-style="normal" font-weight="normal" text-decoration="none" x="800" y="750">UNREGISTERED</text><text fill="#eeeeee" stroke="none" font-family="Arial" font-size="24px" font-style="normal" font-weight="normal" text-decoration="none" x="1000" y="0">UNREGISTERED</text><text fill="#eeeeee" stroke="none" font-family="Arial" font-size="24px" font-style="normal" font-weight="normal" text-decoration="none" x="1000" y="30">UNREGISTERED</text><text fill="#eeeeee" stroke="none" font-family="Arial" font-size="24px" font-style="normal" font-weight="normal" text-decoration="none" x="1000" y="60">UNREGISTERED</text><text fill="#eeeeee" stroke="none" font-family="Arial" font-size="24px" font-style="normal" font-weight="normal" text-decoration="none" x="1000" y="90">UNREGISTERED</text><text fill="#eeeeee" stroke="none" font-family="Arial" font-size="24px" font-style="normal" font-weight="normal" text-decoration="none" x="1000" y="120">UNREGISTERED</text><text fill="#eeeeee" stroke="none" font-family="Arial" font-size="24px" font-style="normal" font-weight="normal" text-decoration="none" x="1000" y="150">UNREGISTERED</text><text fill="#eeeeee" stroke="none" font-family="Arial" font-size="24px" font-style="normal" font-weight="normal" text-decoration="none" x="1000" y="180">UNREGISTERED</text><text fill="#eeeeee" stroke="none" font-family="Arial" font-size="24px" font-style="normal" font-weight="normal" text-decoration="none" x="1000" y="210">UNREGISTERED</text><text fill="#eeeeee" stroke="none" font-family="Arial" font-size="24px" font-style="normal" font-weight="normal" text-decoration="none" x="1000" y="240">UNREGISTERED</text><text fill="#eeeeee" stroke="none" font-family="Arial" font-size="24px" font-style="normal" font-weight="normal" text-decoration="none" x="1000" y="270">UNREGISTERED</text><text fill="#eeeeee" stroke="none" font-family="Arial" font-size="24px" font-style="normal" font-weight="normal" text-decoration="none" x="1000" y="300">UNREGISTERED</text><text fill="#eeeeee" stroke="none" font-family="Arial" font-size="24px" font-style="normal" font-weight="normal" text-decoration="none" x="1000" y="330">UNREGISTERED</text><text fill="#eeeeee" stroke="none" font-family="Arial" font-size="24px" font-style="normal" font-weight="normal" text-decoration="none" x="1000" y="360">UNREGISTERED</text><text fill="#eeeeee" stroke="none" font-family="Arial" font-size="24px" font-style="normal" font-weight="normal" text-decoration="none" x="1000" y="390">UNREGISTERED</text><text fill="#eeeeee" stroke="none" font-family="Arial" font-size="24px" font-style="normal" font-weight="normal" text-decoration="none" x="1000" y="420">UNREGISTERED</text><text fill="#eeeeee" stroke="none" font-family="Arial" font-size="24px" font-style="normal" font-weight="normal" text-decoration="none" x="1000" y="450">UNREGISTERED</text><text fill="#eeeeee" stroke="none" font-family="Arial" font-size="24px" font-style="normal" font-weight="normal" text-decoration="none" x="1000" y="480">UNREGISTERED</text><text fill="#eeeeee" stroke="none" font-family="Arial" font-size="24px" font-style="normal" font-weight="normal" text-decoration="none" x="1000" y="510">UNREGISTERED</text><text fill="#eeeeee" stroke="none" font-family="Arial" font-size="24px" font-style="normal" font-weight="normal" text-decoration="none" x="1000" y="540">UNREGISTERED</text><text fill="#eeeeee" stroke="none" font-family="Arial" font-size="24px" font-style="normal" font-weight="normal" text-decoration="none" x="1000" y="570">UNREGISTERED</text><text fill="#eeeeee" stroke="none" font-family="Arial" font-size="24px" font-style="normal" font-weight="normal" text-decoration="none" x="1000" y="600">UNREGISTERED</text><text fill="#eeeeee" stroke="none" font-family="Arial" font-size="24px" font-style="normal" font-weight="normal" text-decoration="none" x="1000" y="630">UNREGISTERED</text><text fill="#eeeeee" stroke="none" font-family="Arial" font-size="24px" font-style="normal" font-weight="normal" text-decoration="none" x="1000" y="660">UNREGISTERED</text><text fill="#eeeeee" stroke="none" font-family="Arial" font-size="24px" font-style="normal" font-weight="normal" text-decoration="none" x="1000" y="690">UNREGISTERED</text><text fill="#eeeeee" stroke="none" font-family="Arial" font-size="24px" font-style="normal" font-weight="normal" text-decoration="none" x="1000" y="720">UNREGISTERED</text><text fill="#eeeeee" stroke="none" font-family="Arial" font-size="24px" font-style="normal" font-weight="normal" text-decoration="none" x="1000" y="750">UNREGISTERED</text><g transform="translate(-30,10) scale(1,1)"><path fill="none" stroke="#000000" d="M 40 0 L 1120 0 L 1120 760 L 40 760 L 40 0" stroke-miterlimit="10"/></g><g transform="translate(-30,10) scale(1,1)"><path fill="#ffffff" stroke="none" d="M 40 0 L 40 22 L 172.365234375 22 L 183.365234375 11 L 183.365234375 0 L 40 0"/></g><g transform="translate(-30,10) scale(1,1)"><path fill="none" stroke="#000000" d="M 40 0 L 40 22 L 172.365234375 22 L 183.365234375 11 L 183.365234375 0 L 40 0 L 40 0" stroke-miterlimit="10"/></g><g transform="translate(-30,10) scale(1,1)"><g><path fill="none" stroke="none"/><text fill="#000000" stroke="none" font-family="Arial" font-size="13px" font-style="normal" font-weight="normal" text-decoration="none" x="64.72998046875" y="16">Sequence Athlete</text></g></g><g transform="translate(-30,10) scale(1,1)"><g><path fill="none" stroke="none"/><text fill="#000000" stroke="none" font-family="Arial" font-size="13px" font-style="normal" font-weight="bold" text-decoration="none" x="44.279541015625" y="16">sd</text></g></g><g transform="translate(-30,10) scale(1,1)"><rect fill="#f1aeae" stroke="none" x="864" y="720" width="147.8671875" height="22"/></g><g transform="translate(-30,10) scale(1,1)"><path fill="none" stroke="#000000" d="M 864 720 L 1011.8671875 720 L 1011.8671875 742 L 864 742 L 864 720 Z Z" stroke-miterlimit="10"/></g><g transform="translate(-30,10) scale(1,1)"><path fill="none" stroke="#000000" d="M 896.39453125 720 L 896.39453125 742" stroke-miterlimit="10"/></g><g transform="translate(-30,10) scale(1,1)"><g><path fill="none" stroke="none"/><text fill="#000000" stroke="none" font-family="Arial" font-size="13px" font-style="normal" font-weight="normal" text-decoration="none" x="900.89453125" y="736">ClassDiagram_JO</text></g></g><g transform="translate(-30,10) scale(1,1)"><g><path fill="none" stroke="none"/><text fill="#000000" stroke="none" font-family="Arial" font-size="13px" font-style="normal" font-weight="bold" text-decoration="none" x="869" y="736">link</text></g></g><g transform="translate(-30,10) scale(1,1)"><rect fill="#C0C0C0" stroke="none" x="239" y="47" width="224.84814453125" height="39" opacity="0.2"/></g><g transform="translate(-30,10) scale(1,1)"><rect fill="#ffffff" stroke="none" x="232" y="40" width="224.84814453125" height="39"/></g><g transform="translate(-30,10) scale(1,1)"><path fill="none" stroke="#000000" d="M 232 40 L 456.84814453125 40 L 456.84814453125 79 L 232 79 L 232 40 Z Z" stroke-miterlimit="10"/></g><g transform="translate(-30,10) scale(1,1)"><g><path fill="none" stroke="none"/><text fill="#000000" stroke="none" font-family="Arial" font-size="13px" font-style="normal" font-weight="bold" text-decoration="none" x="273.2763671875" y="58">insert: InsertionAthlete</text></g></g><g transform="translate(-30,10) scale(1,1)"><path fill="none" stroke="#000000" d="M 345.5 80 L 345.5 710" stroke-miterlimit="10" stroke-dasharray="3"/></g><g transform="translate(-30,10) scale(1,1)"><rect fill="#C0C0C0" stroke="none" x="527" y="47" width="169.998046875" height="39" opacity="0.2"/></g><g transform="translate(-30,10) scale(1,1)"><rect fill="#ffffff" stroke="none" x="520" y="40" width="169.998046875" height="39"/></g><g transform="translate(-30,10) scale(1,1)"><path fill="none" stroke="#000000" d="M 520 40 L 689.998046875 40 L 689.998046875 79 L 520 79 L 520 40 Z Z" stroke-miterlimit="10"/></g><g transform="translate(-30,10) scale(1,1)"><g><path fill="none" stroke="none"/><text fill="#000000" stroke="none" font-family="Arial" font-size="13px" font-style="normal" font-weight="bold" text-decoration="none" x="533.457763671875" y="58">service: AthleteService</text></g></g><g transform="translate(-30,10) scale(1,1)"><path fill="none" stroke="#000000" d="M 605.5 80 L 605.5 720" stroke-miterlimit="10" stroke-dasharray="3"/></g><g transform="translate(-30,10) scale(1,1)"><path fill="#ffffff" stroke="none" d="M 789.591796875 60 C 789.591796875 48.954304 798.546100875 40 809.591796875 40 C 820.637492875 40 829.591796875 48.954304 829.591796875 60 C 829.591796875 71.04569599999999 820.637492875 80 809.591796875 80 C 798.546100875 80 789.591796875 71.04569599999999 789.591796875 60 Z"/></g><g transform="translate(-30,10) scale(1,1)"><path fill="none" stroke="#000000" d="M 789.591796875 60 C 789.591796875 48.954304 798.546100875 40 809.591796875 40 C 820.637492875 40 829.591796875 48.954304 829.591796875 60 C 829.591796875 71.04569599999999 820.637492875 80 809.591796875 80 C 798.546100875 80 789.591796875 71.04569599999999 789.591796875 60 Z" stroke-miterlimit="10"/></g><g transform="translate(-30,10) scale(1,1)"><g><path fill="none" stroke="none"/><text fill="#000000" stroke="none" font-family="Arial" font-size="13px" font-style="normal" font-weight="bold" text-decoration="none" x="756.5" y="98">crud: IathleteDao</text></g></g><g transform="translate(-30,10) scale(1,1)"><path fill="none" stroke="#000000" d="M 810.5 105 L 810.5 696" stroke-miterlimit="10" stroke-dasharray="3"/></g><g transform="translate(-30,10) scale(1,1)"><rect fill="#C0C0C0" stroke="none" x="927" y="47" width="162.01904296875" height="39" opacity="0.2"/></g><g transform="translate(-30,10) scale(1,1)"><rect fill="#ffffff" stroke="none" x="920" y="40" width="162.01904296875" height="39"/></g><g transform="translate(-30,10) scale(1,1)"><path fill="none" stroke="#000000" d="M 920 40 L 1082.01904296875 40 L 1082.01904296875 79 L 920 79 L 920 40 Z Z" stroke-miterlimit="10"/></g><g transform="translate(-30,10) scale(1,1)"><g><path fill="none" stroke="none"/><text fill="#000000" stroke="none" font-family="Arial" font-size="13px" font-style="normal" font-weight="bold" text-decoration="none" x="929.5" y="58">athleteDao: AthleteDao</text></g></g><g transform="translate(-30,10) scale(1,1)"><path fill="none" stroke="#000000" d="M 1002.5 80 L 1002.5 696" stroke-miterlimit="10" stroke-dasharray="3"/></g><g transform="translate(-30,10) scale(1,1)"><path fill="#ffffff" stroke="none" d="M 136.4622665127841 47.3 C 136.4622665127841 43.82060576 139.3406682349659 41 142.891357421875 41 C 146.4420466087841 41 149.32044833096592 43.82060576 149.32044833096592 47.3 C 149.32044833096592 50.779394239999995 146.4420466087841 53.6 142.891357421875 53.6 C 139.3406682349659 53.6 136.4622665127841 50.779394239999995 136.4622665127841 47.3 Z"/></g><g transform="translate(-30,10) scale(1,1)"><path fill="none" stroke="#000000" d="M 136.4622665127841 47.3 C 136.4622665127841 43.82060576 139.3406682349659 41 142.891357421875 41 C 146.4420466087841 41 149.32044833096592 43.82060576 149.32044833096592 47.3 C 149.32044833096592 50.779394239999995 146.4420466087841 53.6 142.891357421875 53.6 C 139.3406682349659 53.6 136.4622665127841 50.779394239999995 136.4622665127841 47.3 Z" stroke-miterlimit="10"/></g><g transform="translate(-30,10) scale(1,1)"><path fill="none" stroke="#000000" d="M 142.891357421875 53.6 L 142.891357421875 66.4" stroke-miterlimit="10"/></g><g transform="translate(-30,10) scale(1,1)"><path fill="none" stroke="#000000" d="M 136.0840846946023 58.4 L 149.69863014914773 58.4" stroke-miterlimit="10"/></g><g transform="translate(-30,10) scale(1,1)"><path fill="none" stroke="#000000" d="M 142.891357421875 66.4 L 133.43681196732956 79" stroke-miterlimit="10"/></g><g transform="translate(-30,10) scale(1,1)"><path fill="none" stroke="#000000" d="M 142.891357421875 66.4 L 152.34590287642047 79" stroke-miterlimit="10"/></g><g transform="translate(-30,10) scale(1,1)"><g><path fill="none" stroke="none"/><text fill="#000000" stroke="none" font-family="Arial" font-size="13px" font-style="normal" font-weight="bold" text-decoration="none" x="84.029541015625" y="98">composant: Admin</text></g></g><g transform="translate(-30,10) scale(1,1)"><path fill="none" stroke="#000000" d="M 143.5 105 L 143.5 712" stroke-miterlimit="10" stroke-dasharray="3"/></g><g transform="translate(-30,10) scale(1,1)"><path fill="#ffffff" stroke="none" d="M 1080 248 L 1168 248 L 1178 258 L 1178 297 L 1080 297 L 1080 248"/></g><g transform="translate(-30,10) scale(1,1)"><path fill="none" stroke="#000000" d="M 1080 248 L 1168 248 L 1178 258 L 1178 297 L 1080 297 L 1080 248 L 1080 248" stroke-miterlimit="10"/></g><g transform="translate(-30,10) scale(1,1)"><path fill="none" stroke="#000000" d="M 1168 248 L 1168 258 L 1178 258 L 1168 248" stroke-miterlimit="10"/></g><g transform="translate(-30,10) scale(1,1)"><g><path fill="none" stroke="none"/><text fill="#000000" stroke="none" font-family="Arial" font-size="13px" font-style="normal" font-weight="normal" text-decoration="none" x="1085" y="263">Repetition pour</text><text fill="#000000" stroke="none" font-family="Arial" font-size="13px" font-style="normal" font-weight="normal" text-decoration="none" x="1085" y="276">chaque athlete</text></g></g><g transform="translate(-30,10) scale(1,1)"><path fill="none" stroke="#000000" d="M 143 120 L 338 120" stroke-miterlimit="10"/></g><g transform="translate(-30,10) scale(1,1)"><path fill="#000000" stroke="none" d="M 327.83732514237585 124.20951775601598 L 338 120 L 327.83732514237585 115.79048224398402"/></g><g transform="translate(-30,10) scale(1,1)"><path fill="none" stroke="#000000" d="M 327.83732514237585 124.20951775601598 L 338 120 L 327.83732514237585 115.79048224398402 L 327.83732514237585 124.20951775601598" stroke-miterlimit="10"/></g><g transform="translate(-30,10) scale(1,1)"><g><path fill="none" stroke="none"/><text fill="#000000" stroke="none" font-family="Arial" font-size="13px" font-style="normal" font-weight="normal" text-decoration="none" x="212.07177734375" y="115">1 : main()</text></g></g><g transform="translate(-30,10) scale(1,1)"><rect fill="#ffffff" stroke="none" x="338" y="120" width="13" height="72"/></g><g transform="translate(-30,10) scale(1,1)"><path fill="none" stroke="#000000" d="M 338 120 L 351 120 L 351 192 L 338 192 L 338 120 Z Z" stroke-miterlimit="10"/></g><g transform="translate(-30,10) scale(1,1)"><path fill="none" stroke="#000000" d="M 351 144 L 598 144" stroke-miterlimit="10"/></g><g transform="translate(-30,10) scale(1,1)"><path fill="#000000" stroke="none" d="M 587.8373251423759 148.209517756016 L 598 144 L 587.8373251423758 139.790482243984"/></g><g transform="translate(-30,10) scale(1,1)"><path fill="none" stroke="#000000" d="M 587.8373251423759 148.209517756016 L 598 144 L 587.8373251423758 139.790482243984 L 587.8373251423759 148.209517756016" stroke-miterlimit="10"/></g><g transform="translate(-30,10) scale(1,1)"><g><path fill="none" stroke="none"/><text fill="#000000" stroke="none" font-family="Arial" font-size="13px" font-style="normal" font-weight="normal" text-decoration="none" x="362.008544921875" y="139">2 : listAthletes = getAthletes(CSVFILE)</text></g></g><g transform="translate(-30,10) scale(1,1)"><rect fill="#ffffff" stroke="none" x="598" y="144" width="13" height="32"/></g><g transform="translate(-30,10) scale(1,1)"><path fill="none" stroke="#000000" d="M 598 144 L 611 144 L 611 176 L 598 176 L 598 144 Z Z" stroke-miterlimit="10"/></g><g transform="translate(-30,10) scale(1,1)"><path fill="none" stroke="#000000" d="M 598 163 L 351 163" stroke-miterlimit="10" stroke-dasharray="3"/></g><g transform="translate(-30,10) scale(1,1)"><path fill="none" stroke="#000000" d="M 361.16267485762415 158.790482243984 L 351 163 L 361.16267485762415 167.209517756016" stroke-miterlimit="10"/></g><g transform="translate(-30,10) scale(1,1)"><g><path fill="none" stroke="none"/><text fill="#000000" stroke="none" font-family="Arial" font-size="13px" font-style="normal" font-weight="normal" text-decoration="none" x="432.5" y="178">3 : listAthletes</text></g></g><g transform="translate(-30,10) scale(1,1)"><path fill="none" stroke="#000000" d="M 345 312 L 803 312" stroke-miterlimit="10"/></g><g transform="translate(-30,10) scale(1,1)"><path fill="#000000" stroke="none" d="M 792.8373251423759 316.209517756016 L 803 312 L 792.8373251423758 307.790482243984"/></g><g transform="translate(-30,10) scale(1,1)"><path fill="none" stroke="#000000" d="M 792.8373251423759 316.209517756016 L 803 312 L 792.8373251423758 307.790482243984 L 792.8373251423759 316.209517756016" stroke-miterlimit="10"/></g><g transform="translate(-30,10) scale(1,1)"><g><path fill="none" stroke="none"/><text fill="#000000" stroke="none" font-family="Arial" font-size="13px" font-style="normal" font-weight="normal" text-decoration="none" x="535.22998046875" y="307">4 : isAthlete()</text></g></g><g transform="translate(-30,10) scale(1,1)"><rect fill="#ffffff" stroke="none" x="803" y="312" width="13" height="28"/></g><g transform="translate(-30,10) scale(1,1)"><path fill="none" stroke="#000000" d="M 803 312 L 816 312 L 816 340 L 803 340 L 803 312 Z Z" stroke-miterlimit="10"/></g><g transform="translate(-30,10) scale(1,1)"><path fill="none" stroke="#000000" d="M 816 320 L 995 320" stroke-miterlimit="10"/></g><g transform="translate(-30,10) scale(1,1)"><path fill="#000000" stroke="none" d="M 984.8373251423759 324.209517756016 L 995 320 L 984.8373251423758 315.790482243984"/></g><g transform="translate(-30,10) scale(1,1)"><path fill="none" stroke="#000000" d="M 984.8373251423759 324.209517756016 L 995 320 L 984.8373251423758 315.790482243984 L 984.8373251423759 324.209517756016" stroke-miterlimit="10"/></g><g transform="translate(-30,10) scale(1,1)"><g><path fill="none" stroke="none"/><text fill="#000000" stroke="none" font-family="Arial" font-size="13px" font-style="normal" font-weight="normal" text-decoration="none" x="866.22998046875" y="315">5 : isAthlete()</text></g></g><g transform="translate(-30,10) scale(1,1)"><rect fill="#ffffff" stroke="none" x="995" y="320" width="13" height="136"/></g><g transform="translate(-30,10) scale(1,1)"><path fill="none" stroke="#000000" d="M 995 320 L 1008 320 L 1008 456 L 995 456 L 995 320 Z Z" stroke-miterlimit="10"/></g><g transform="translate(-30,10) scale(1,1)"><path fill="none" stroke="#000000" d="M 995 368 L 345 368" stroke-miterlimit="10" stroke-dasharray="3"/></g><g transform="translate(-30,10) scale(1,1)"><path fill="none" stroke="#000000" d="M 355.16267485762415 363.790482243984 L 345 368 L 355.16267485762415 372.209517756016" stroke-miterlimit="10"/></g><g transform="translate(-30,10) scale(1,1)"><g><path fill="none" stroke="none"/><text fill="#000000" stroke="none" font-family="Arial" font-size="13px" font-style="normal" font-weight="normal" text-decoration="none" x="621.5" y="383">6 : false = status</text></g></g><g transform="translate(-30,10) scale(1,1)"><path fill="none" stroke="#000000" d="M 995 445 L 345 445" stroke-miterlimit="10" stroke-dasharray="3"/></g><g transform="translate(-30,10) scale(1,1)"><path fill="none" stroke="#000000" d="M 355.16267485762415 440.790482243984 L 345 445 L 355.16267485762415 449.209517756016" stroke-miterlimit="10"/></g><g transform="translate(-30,10) scale(1,1)"><g><path fill="none" stroke="none"/><text fill="#000000" stroke="none" font-family="Arial" font-size="13px" font-style="normal" font-weight="normal" text-decoration="none" x="624.5" y="460">7 : true = status</text></g></g><g transform="translate(-30,10) scale(1,1)"><path fill="none" stroke="#000000" d="M 345 480 L 803 480" stroke-miterlimit="10"/></g><g transform="translate(-30,10) scale(1,1)"><path fill="#000000" stroke="none" d="M 792.8373251423759 484.209517756016 L 803 480 L 792.8373251423758 475.790482243984"/></g><g transform="translate(-30,10) scale(1,1)"><path fill="none" stroke="#000000" d="M 792.8373251423759 484.209517756016 L 803 480 L 792.8373251423758 475.790482243984 L 792.8373251423759 484.209517756016" stroke-miterlimit="10"/></g><g transform="translate(-30,10) scale(1,1)"><g><path fill="none" stroke="none"/><text fill="#000000" stroke="none" font-family="Arial" font-size="13px" font-style="normal" font-weight="normal" text-decoration="none" x="529.5" y="475">8 : addAthlete()</text></g></g><g transform="translate(-30,10) scale(1,1)"><rect fill="#ffffff" stroke="none" x="803" y="480" width="13" height="28"/></g><g transform="translate(-30,10) scale(1,1)"><path fill="none" stroke="#000000" d="M 803 480 L 816 480 L 816 508 L 803 508 L 803 480 Z Z" stroke-miterlimit="10"/></g><g transform="translate(-30,10) scale(1,1)"><path fill="none" stroke="#000000" d="M 816 496 L 995 496" stroke-miterlimit="10"/></g><g transform="translate(-30,10) scale(1,1)"><path fill="#000000" stroke="none" d="M 984.8373251423759 500.209517756016 L 995 496 L 984.8373251423758 491.790482243984"/></g><g transform="translate(-30,10) scale(1,1)"><path fill="none" stroke="#000000" d="M 984.8373251423759 500.209517756016 L 995 496 L 984.8373251423758 491.790482243984 L 984.8373251423759 500.209517756016" stroke-miterlimit="10"/></g><g transform="translate(-30,10) scale(1,1)"><g><path fill="none" stroke="none"/><text fill="#000000" stroke="none" font-family="Arial" font-size="13px" font-style="normal" font-weight="normal" text-decoration="none" x="841.114990234375" y="491">9 : addAthlete(athlete)</text></g></g><g transform="translate(-30,10) scale(1,1)"><rect fill="#ffffff" stroke="none" x="995" y="496" width="13" height="56"/></g><g transform="translate(-30,10) scale(1,1)"><path fill="none" stroke="#000000" d="M 995 496 L 1008 496 L 1008 552 L 995 552 L 995 496 Z Z" stroke-miterlimit="10"/></g><g transform="translate(-30,10) scale(1,1)"><path fill="none" stroke="#000000" d="M 345 572 L 803 572" stroke-miterlimit="10"/></g><g transform="translate(-30,10) scale(1,1)"><path fill="#000000" stroke="none" d="M 792.8373251423759 576.209517756016 L 803 572 L 792.8373251423758 567.790482243984"/></g><g transform="translate(-30,10) scale(1,1)"><path fill="none" stroke="#000000" d="M 792.8373251423759 576.209517756016 L 803 572 L 792.8373251423758 567.790482243984 L 792.8373251423759 576.209517756016" stroke-miterlimit="10"/></g><g transform="translate(-30,10) scale(1,1)"><g><path fill="none" stroke="none"/><text fill="#000000" stroke="none" font-family="Arial" font-size="13px" font-style="normal" font-weight="normal" text-decoration="none" x="516.5" y="567">10 : updateAthlete()</text></g></g><g transform="translate(-30,10) scale(1,1)"><rect fill="#ffffff" stroke="none" x="803" y="572" width="13" height="28"/></g><g transform="translate(-30,10) scale(1,1)"><path fill="none" stroke="#000000" d="M 803 572 L 816 572 L 816 600 L 803 600 L 803 572 Z Z" stroke-miterlimit="10"/></g><g transform="translate(-30,10) scale(1,1)"><path fill="none" stroke="#000000" d="M 816 592 L 995 592" stroke-miterlimit="10"/></g><g transform="translate(-30,10) scale(1,1)"><path fill="#000000" stroke="none" d="M 984.8373251423759 596.209517756016 L 995 592 L 984.8373251423758 587.790482243984"/></g><g transform="translate(-30,10) scale(1,1)"><path fill="none" stroke="#000000" d="M 984.8373251423759 596.209517756016 L 995 592 L 984.8373251423758 587.790482243984 L 984.8373251423759 596.209517756016" stroke-miterlimit="10"/></g><g transform="translate(-30,10) scale(1,1)"><g><path fill="none" stroke="none"/><text fill="#000000" stroke="none" font-family="Arial" font-size="13px" font-style="normal" font-weight="normal" text-decoration="none" x="828.982421875" y="587">11 : updateAthlete(athlete)</text></g></g><g transform="translate(-30,10) scale(1,1)"><rect fill="#ffffff" stroke="none" x="995" y="592" width="13" height="56"/></g><g transform="translate(-30,10) scale(1,1)"><path fill="none" stroke="#000000" d="M 995 592 L 1008 592 L 1008 648 L 995 648 L 995 592 Z Z" stroke-miterlimit="10"/></g><g transform="translate(-30,10) scale(1,1)"><path fill="none" stroke="#000000" d="M 344 224 L 1008 224 L 1008 688 L 344 688 L 344 224" stroke-miterlimit="10"/></g><g transform="translate(-30,10) scale(1,1)"><path fill="#ffffff" stroke="none" d="M 344 224 L 344 246 L 469.12255859375 246 L 480.12255859375 235 L 480.12255859375 224 L 344 224"/></g><g transform="translate(-30,10) scale(1,1)"><path fill="none" stroke="#000000" d="M 344 224 L 344 246 L 469.12255859375 246 L 480.12255859375 235 L 480.12255859375 224 L 344 224 L 344 224" stroke-miterlimit="10"/></g><g transform="translate(-30,10) scale(1,1)"><g><path fill="none" stroke="none"/><text fill="#000000" stroke="none" font-family="Arial" font-size="13px" font-style="normal" font-weight="normal" text-decoration="none" x="368.72998046875" y="240">Condition Status</text></g></g><g transform="translate(-30,10) scale(1,1)"><g><path fill="none" stroke="none"/><text fill="#000000" stroke="none" font-family="Arial" font-size="13px" font-style="normal" font-weight="bold" text-decoration="none" x="348.279541015625" y="240">alt</text></g></g><g transform="translate(-30,10) scale(1,1)"><g><path fill="none" stroke="none"/><text fill="#000000" stroke="none" font-family="Arial" font-size="13px" font-style="normal" font-weight="normal" text-decoration="none" x="363.5" y="273">[status == false]</text></g></g><g transform="translate(-30,10) scale(1,1)"><path fill="none" stroke="#000000" d="M 344 393 L 1008 393" stroke-miterlimit="10" stroke-dasharray="10,3"/></g><g transform="translate(-30,10) scale(1,1)"><g><path fill="none" stroke="none"/><text fill="#000000" stroke="none" font-family="Arial" font-size="13px" font-style="normal" font-weight="normal" text-decoration="none" x="363.5" y="419">[status == true]</text></g></g></g></svg>